<svg xmlns="http://www.w3.org/2000/svg" xmlns:xlink="http://www.w3.org/1999/xlink" version="1.1" id="el_rBxAknPhY" x="0px" y="0px" viewBox="0 0 512 512" style="enable-background:new 0 0 50.5 50.5;" xml:space="preserve"><style>@-webkit-keyframes el_4nxemAa31M_Animation{0%{opacity: 0;}66.67%{opacity: 1;}100%{opacity: 1;}}@keyframes el_4nxemAa31M_Animation{0%{opacity: 0;}66.67%{opacity: 1;}100%{opacity: 1;}}#el_rBxAknPhY *{-webkit-animation-duration: 3s;animation-duration: 3s;-webkit-animation-timing-function: cubic-bezier(0, 0, 1, 1);animation-timing-function: cubic-bezier(0, 0, 1, 1);}#el_fZ4QF7t983{fill: #FFFFFF;}#el_8abgrGZzwI{fill: #FFFFFF;}#el_fZ4QF7t983_REsDfvUTI{-webkit-transform: translate(0px, 0px) rotate(1080deg) translate(0px, 0px);transform: translate(0px, 0px) rotate(1080deg) translate(0px, 0px);}#el_fZ4QF7t983_QQIAd9klr{-webkit-transform: translate(0px, 0px) rotate(900deg) translate(0px, 0px);transform: translate(0px, 0px) rotate(900deg) translate(0px, 0px);}#el_4nxemAa31M{-webkit-animation-name: el_4nxemAa31M_Animation;animation-name: el_4nxemAa31M_Animation;opacity: 0;}</style>
<g id="el_4nxemAa31M">
	<path d="M25.25,0c-4.217,0-8.392,1.061-12.072,3.069c-0.485,0.265-0.664,0.872-0.399,1.357c0.265,0.485,0.874,0.664,1.356,0.399   C17.523,2.977,21.367,2,25.25,2C38.07,2,48.5,12.43,48.5,25.25S38.07,48.5,25.25,48.5C12.43,48.5,2,38.07,2,25.25   c0-6.261,2.455-12.134,6.914-16.539C9.307,8.323,9.311,7.69,8.922,7.297c-0.388-0.394-1.02-0.397-1.414-0.009   C2.666,12.072,0,18.451,0,25.25C0,39.173,11.327,50.5,25.25,50.5c13.923,0,25.25-11.327,25.25-25.25C50.5,11.327,39.173,0,25.25,0z   " id="el_fZ4QF7t983"/>
	<path d="M17.609,13.498c-0.553,0-1,0.448-1,1v21.504c0,0.552,0.447,1,1,1c0.553,0,1-0.448,1-1v-8.826l13.707,9.644   c0.175,0.123,0.375,0.182,0.574,0.182c0.314,0,0.624-0.148,0.818-0.425c0.318-0.452,0.21-1.075-0.242-1.393L19.348,25.25   l12.544-8.826v12.773c0,0.552,0.447,1,1,1c0.553,0,1-0.448,1-1V14.498c0-0.374-0.208-0.715-0.539-0.888   c-0.333-0.172-0.73-0.144-1.036,0.07l-13.707,9.644v-8.826C18.609,13.946,18.162,13.498,17.609,13.498z" id="el_8abgrGZzwI"/>
</g>
<g id="el_qa12YtsUjx">
</g>
<g id="el_grb1mrIshH">
</g>
<g id="el_MfOVAywiCg">
</g>
<g id="el_H43Qmq2Tl9">
</g>
<g id="el_NwKOvngNCG">
</g>
<g id="el_APj62UdQ_T">
</g>
<g id="el_QcoKWdAXs2">
</g>
<g id="el_U4DEdxtUK3">
</g>
<g id="el_-_Fz2beis_">
</g>
<g id="el_A0Lq_vHcOO">
</g>
<g id="el_EbS8fsQ4W9">
</g>
<g id="el_OVFa-d5-kp">
</g>
<g id="el_ENL8ljvOIAq">
</g>
<g id="el_CQp3yk-gj-z">
</g>
<g id="el_NEudCXSH26n">
</g>
</svg>