<?xml version="1.0" standalone="no"?>
<!DOCTYPE svg PUBLIC "-//W3C//DTD SVG 20010904//EN"
 "http://www.w3.org/TR/2001/REC-SVG-20010904/DTD/svg10.dtd">
<svg version="1.0" xmlns="http://www.w3.org/2000/svg"
 width="512.000000pt" height="512.000000pt" viewBox="0 0 512.000000 512.000000"
 preserveAspectRatio="xMidYMid meet">
<metadata>
Created by potrace 1.11, written by Peter Selinger 2001-2013
</metadata>
<g transform="translate(0.000000,512.000000) scale(0.100000,-0.100000)"
fill="#000000" stroke="none">
<path d="M2370 5114 c-387 -45 -637 -113 -917 -248 -142 -69 -165 -90 -165
-153 0 -29 7 -43 31 -65 42 -38 71 -36 172 13 258 126 516 204 794 240 120 15
437 15 555 0 540 -71 1014 -304 1387 -679 376 -378 603 -845 674 -1382 16
-122 16 -438 0 -560 -71 -537 -298 -1004 -674 -1382 -373 -375 -848 -608
-1387 -679 -122 -16 -438 -16 -560 0 -923 122 -1672 738 -1960 1611 -79 239
-113 463 -113 735 0 615 214 1150 652 1628 62 67 71 82 71 115 -1 57 -47 102
-105 102 -52 0 -251 -217 -390 -425 -221 -332 -348 -662 -412 -1075 -26 -174
-24 -548 5 -730 45 -275 116 -498 237 -745 132 -269 269 -460 489 -681 221
-220 412 -357 681 -489 247 -121 469 -192 745 -237 195 -31 565 -31 760 0 276
45 498 116 745 237 269 132 460 269 681 489 220 221 357 412 489 681 88 179
132 296 180 476 63 240 78 371 78 649 0 278 -15 409 -78 649 -48 180 -92 297
-180 476 -132 269 -269 460 -489 681 -221 220 -412 357 -681 489 -357 175
-675 252 -1075 259 -113 3 -221 2 -240 0z"/>
<path d="M1727 3730 c-15 -12 -31 -38 -37 -58 -14 -51 -14 -2173 0 -2224 22
-78 103 -102 162 -49 l33 29 5 466 5 465 675 -476 c371 -261 689 -484 705
-494 45 -28 91 -25 126 10 37 38 40 97 7 135 -13 14 -340 249 -728 521 -388
273 -705 500 -705 505 0 5 281 207 625 449 l625 440 5 -665 5 -666 33 -29 c56
-50 129 -33 158 37 21 49 21 1509 0 1558 -17 42 -51 66 -92 66 -34 0 -37 -2
-1054 -718 l-385 -271 -5 465 -5 466 -33 29 c-39 35 -87 38 -125 9z"/>
</g>
</svg>
